<?xml version="1.0" standalone="no"?>
<!DOCTYPE svg PUBLIC "-//W3C//DTD SVG 20010904//EN"
 "http://www.w3.org/TR/2001/REC-SVG-20010904/DTD/svg10.dtd">
<svg version="1.0" xmlns="http://www.w3.org/2000/svg"
 width="160.000000pt" height="160.000000pt" viewBox="0 0 160.000000 160.000000"
 preserveAspectRatio="xMidYMid meet">
<metadata>
Created by potrace 1.14, written by Peter Selinger 2001-2017
</metadata>
<g transform="translate(0.000000,160.000000) scale(0.100000,-0.100000)"
fill="#000000" stroke="none">
<path d="M589 1203 c-5 -10 -7 -30 -8 -83 -1 -46 -4 -60 -16 -60 -9 0 -15 9
-15 23 0 13 -3 27 -7 31 -4 4 -8 24 -8 44 l0 36 -97 1 c-54 0 -99 -2 -99 -5
-1 -3 -3 -20 -3 -37 -1 -18 -5 -36 -9 -39 -4 -4 -7 -18 -7 -31 0 -14 -6 -23
-15 -23 -16 0 -17 2 -19 70 -1 25 -5 50 -8 55 -5 9 -129 13 -184 6 -7 -1 -10
-22 -9 -53 1 -70 -2 -78 -35 -78 -18 0 -29 -6 -32 -17 -7 -33 -2 -912 6 -920
10 -11 1542 -10 1553 0 12 13 11 1067 -2 1075 -9 6 -983 10 -986 5z"/>
</g>
</svg>
